# xmcd
#
# Track frame offsets: 
#        150
#        19278
#        48552
#        92005
#        108999
#        131765
#        173143
#
# Disc length: 2748 seconds
#
# Revision: 2
# Processed by: cddbd v1.5.2PL0 Copyright (c) Steve Scherf et al.
# Submitted via: ExactAudioCopy v0.99pb5
#
DISCID=590aba07
DTITLE=Stevie Ray Vaughan and Double Trouble - Live Alive [Disc 2]
DYEAR=1986
DGENRE=Blues
TTITLE0=Look at Little Sister
TTITLE1=Texas Flood
TTITLE2=Voodoo Chile (Slight Return)
TTITLE3=Love Struck Baby
TTITLE4=Change It
TTITLE5=Life without You
TTITLE6=The Sky is Crying
EXTD=Sony Music Japan\nDigitally Remastered 2009
EXTT0=
EXTT1=
EXTT2=
EXTT3=
EXTT4=
EXTT5=
EXTT6=Bonus Track
PLAYORDER=
